<svg width="159" height="119" viewBox="0 0 159 119" fill="none" xmlns="http://www.w3.org/2000/svg">
<path d="M159 104.603H0V104.683H159V104.603Z" fill="#EBEBEB"/>
<path d="M143.068 109.72H132.536V109.799H143.068V109.72Z" fill="#EBEBEB"/>
<path d="M105.328 110.585H102.564V110.664H105.328V110.585Z" fill="#EBEBEB"/>
<path d="M132.218 106.769H126.116V106.848H132.218V106.769Z" fill="#EBEBEB"/>
<path d="M30.4168 107.303H16.6824V107.382H30.4168V107.303Z" fill="#EBEBEB"/>
<path d="M35.2629 107.303H33.25V107.382H35.2629V107.303Z" fill="#EBEBEB"/>
<path d="M71.5976 108.645H41.8074V108.725H71.5976V108.645Z" fill="#EBEBEB"/>
<path d="M75.3661 90.4204H13.9635C13.4825 90.4195 13.0214 90.2279 12.6816 89.8874C12.3417 89.547 12.1509 89.0856 12.1509 88.6046V2.28987C12.1551 1.81161 12.3478 1.35431 12.6872 1.0173C13.0266 0.6803 13.4852 0.49081 13.9635 0.48999H75.3661C75.8477 0.48999 76.3095 0.681295 76.6501 1.02182C76.9906 1.36234 77.1819 1.8242 77.1819 2.30577V88.6046C77.1819 89.0862 76.9906 89.548 76.6501 89.8886C76.3095 90.2291 75.8477 90.4204 75.3661 90.4204V90.4204ZM13.9635 0.55359C13.5035 0.554433 13.0627 0.737733 12.7378 1.06326C12.4129 1.38878 12.2304 1.82993 12.2304 2.28987V88.6046C12.2304 89.0645 12.4129 89.5057 12.7378 89.8312C13.0627 90.1567 13.5035 90.34 13.9635 90.3409H75.3661C75.8263 90.34 76.2675 90.1568 76.5929 89.8314C76.9183 89.506 77.1015 89.0648 77.1024 88.6046V2.28987C77.1015 1.82964 76.9183 1.3885 76.5929 1.06306C76.2675 0.73763 75.8263 0.554431 75.3661 0.55359H13.9635Z" fill="#EBEBEB"/>
<path d="M144.153 90.4204H82.7469C82.2656 90.4195 81.8043 90.228 81.4639 89.8876C81.1236 89.5473 80.932 89.0859 80.9312 88.6046V2.28987C80.9362 1.81132 81.1296 1.35402 81.4695 1.0171C81.8094 0.680189 82.2683 0.490801 82.7469 0.48999H144.153C144.63 0.491645 145.088 0.681505 145.427 1.01842C145.766 1.35533 145.958 1.81216 145.962 2.28987V88.6046C145.962 89.0851 145.772 89.546 145.433 89.8863C145.093 90.2267 144.633 90.4187 144.153 90.4204V90.4204ZM82.7469 0.55359C82.2867 0.554431 81.8456 0.73763 81.5201 1.06306C81.1947 1.3885 81.0115 1.82964 81.0107 2.28987V88.6046C81.0115 89.0648 81.1947 89.506 81.5201 89.8314C81.8456 90.1568 82.2867 90.34 82.7469 90.3409H144.153C144.613 90.34 145.054 90.1568 145.38 89.8314C145.705 89.506 145.888 89.0648 145.889 88.6046V2.28987C145.888 1.82964 145.705 1.3885 145.38 1.06306C145.054 0.73763 144.613 0.554431 144.153 0.55359H82.7469Z" fill="#EBEBEB"/>
<path d="M130.851 93.6036C130.851 93.6036 128.408 88.8336 131.2 84.1082C133.992 79.3827 134.8 78.2824 133.019 77.3157C131.239 76.3489 130.425 81.0872 130.425 81.0872C130.425 81.0872 128.924 77.8277 130.164 74.4092C131.404 70.9906 132.18 65.4415 130.482 64.8469C128.784 64.2522 130.164 71.7761 128.688 74.3424C128.688 74.3424 127.458 71.4804 127.254 68.7456C127.051 66.0108 127.369 61.6319 126.033 60.5094C124.697 59.3868 123.839 60.1659 125.152 66.2111C125.941 69.813 126.377 73.483 126.456 77.1694C126.456 77.1694 123.556 69.2385 121.61 69.0095C119.663 68.7805 119.667 71.3468 121.333 73.5728C122.999 75.7988 126.211 79.7929 126.739 81.8408C126.739 81.8408 123.559 75.8751 120.697 77.7068C117.835 79.5385 123.19 83.1414 125.578 84.4421C127.966 85.7427 129.62 93.9121 129.62 93.9121L130.851 93.6036Z" fill="#E0E0E0"/>
<path d="M128.92 95.5719C128.92 95.5719 131.302 90.7574 128.446 86.0796C125.591 81.4018 124.767 80.3048 126.538 79.3158C128.31 78.3268 129.184 83.0523 129.184 83.0523C129.184 83.0523 130.641 79.7705 129.356 76.3743C128.071 72.978 127.222 67.4353 128.904 66.8184C130.587 66.2015 129.321 73.7444 130.812 76.2884C130.812 76.2884 132.008 73.4264 132.173 70.6757C132.339 67.925 131.964 63.5621 133.286 62.4236C134.609 61.2852 135.471 62.0484 134.24 68.1095C133.501 71.7226 133.114 75.3989 133.083 79.0868C133.083 79.0868 135.878 71.1177 137.821 70.8602C139.764 70.6026 139.796 73.172 138.158 75.4203C136.52 77.6685 133.363 81.7039 132.863 83.7646C132.863 83.7646 135.967 77.7544 138.855 79.5447C141.742 81.3351 136.435 85.0111 134.065 86.3467C131.696 87.6823 130.148 95.8677 130.148 95.8677L128.92 95.5719Z" fill="#E6E6E6"/>
<path d="M139.898 92.1343H120.239L121.829 104.753H138.308L139.898 92.1343Z" fill="#F0F0F0"/>
<path d="M104.832 12.2749H69.0188V51.9041H104.832V12.2749Z" fill="#E9E9E9"/>
<path d="M103.35 13.8459H70.5959V50.4159H103.35V13.8459Z" fill="#F4F4F4"/>
<path d="M79.8529 13.8459L70.5959 48.5143V29.7459L74.8317 13.8459H79.8529Z" fill="white"/>
<path d="M83.9903 13.8459L74.2277 50.4159H72.3865L82.1491 13.8459H83.9903Z" fill="white"/>
<path d="M103.35 23.8184V42.5899L101.277 50.4159H96.2554L103.35 23.8184Z" fill="white"/>
<path d="M87.5613 12.2749H86.2893V51.9041H87.5613V12.2749Z" fill="#E9E9E9"/>
<path d="M104.145 20.3171H69.6421V21.5891H104.145V20.3171Z" fill="#E9E9E9"/>
<path d="M55.8598 12.2749H20.0466V51.9041H55.8598V12.2749Z" fill="#E9E9E9"/>
<path d="M54.378 13.8459H21.624V50.4159H54.378V13.8459Z" fill="#F4F4F4"/>
<path d="M30.881 13.8459L21.624 48.5143V29.7459L25.8598 13.8459H30.881Z" fill="white"/>
<path d="M35.0181 13.8459L25.2555 50.4159H23.4143L33.1769 13.8459H35.0181Z" fill="white"/>
<path d="M54.378 23.8184V42.5899L52.3047 50.4159H47.2834L54.378 23.8184Z" fill="white"/>
<path d="M38.5891 12.2749H37.3171V51.9041H38.5891V12.2749Z" fill="#E9E9E9"/>
<path d="M55.1729 20.3171H20.6699V21.5891H55.1729V20.3171Z" fill="#E9E9E9"/>
<path d="M79.5 118.964C113.552 118.964 141.157 117.353 141.157 115.364C141.157 113.376 113.552 111.765 79.5 111.765C45.4478 111.765 17.843 113.376 17.843 115.364C17.843 117.353 45.4478 118.964 79.5 118.964Z" fill="#F5F5F5"/>
<path d="M121.368 104.753H72.558C72.2659 104.757 71.9761 104.7 71.7076 104.585C71.4391 104.469 71.1981 104.299 71.0002 104.084C70.8023 103.869 70.6521 103.614 70.5595 103.337C70.4668 103.06 70.4337 102.767 70.4624 102.476L76.6157 23.5354C76.6714 22.9202 76.9526 22.3474 77.4052 21.927C77.8578 21.5067 78.4499 21.2686 79.0675 21.2585H127.874C128.166 21.254 128.456 21.3113 128.725 21.4266C128.994 21.5418 129.235 21.7125 129.433 21.9274C129.631 22.1424 129.782 22.3967 129.875 22.6738C129.968 22.9509 130.001 23.2445 129.973 23.5354L123.82 102.476C123.763 103.091 123.482 103.663 123.029 104.083C122.577 104.504 121.985 104.742 121.368 104.753Z" fill="#2E353A"/>
<path opacity="0.2" d="M121.368 104.753H72.558C72.2659 104.757 71.9761 104.7 71.7076 104.585C71.4391 104.469 71.1981 104.299 71.0002 104.084C70.8023 103.869 70.6521 103.614 70.5595 103.337C70.4668 103.06 70.4337 102.767 70.4624 102.476L76.6157 23.5354C76.6714 22.9202 76.9526 22.3474 77.4052 21.927C77.8578 21.5067 78.4499 21.2686 79.0675 21.2585H127.874C128.166 21.254 128.456 21.3113 128.725 21.4266C128.994 21.5418 129.235 21.7125 129.433 21.9274C129.631 22.1424 129.782 22.3967 129.875 22.6738C129.968 22.9509 130.001 23.2445 129.973 23.5354L123.82 102.476C123.763 103.091 123.482 103.663 123.029 104.083C122.577 104.504 121.985 104.742 121.368 104.753Z" fill="white"/>
<path d="M114.757 26.4196H91.3837C91.2815 26.4214 91.1801 26.4016 91.0861 26.3615C90.9921 26.3213 90.9076 26.2618 90.8383 26.1867C90.7689 26.1116 90.7162 26.0227 90.6836 25.9259C90.651 25.829 90.6393 25.7263 90.6491 25.6246L91.0085 21.0104C91.0281 20.7949 91.1265 20.5943 91.285 20.447C91.4435 20.2996 91.6508 20.216 91.8671 20.2122H115.24C115.342 20.2108 115.444 20.231 115.538 20.2715C115.631 20.3121 115.716 20.372 115.785 20.4474C115.854 20.5227 115.906 20.6119 115.938 20.7089C115.971 20.8059 115.982 20.9087 115.971 21.0104L115.612 25.6119C115.596 25.8288 115.499 26.0317 115.341 26.1811C115.182 26.3304 114.974 26.4155 114.757 26.4196V26.4196Z" fill="#87878B"/>
<path opacity="0.2" d="M114.757 26.4196H91.3837C91.2815 26.4214 91.1801 26.4016 91.0861 26.3615C90.9921 26.3213 90.9076 26.2618 90.8383 26.1867C90.7689 26.1116 90.7162 26.0227 90.6836 25.9259C90.651 25.829 90.6393 25.7263 90.6491 25.6246L91.0085 21.0104C91.0281 20.7949 91.1265 20.5943 91.285 20.447C91.4435 20.2996 91.6508 20.216 91.8671 20.2122H115.24C115.342 20.2108 115.444 20.231 115.538 20.2715C115.631 20.3121 115.716 20.372 115.785 20.4474C115.854 20.5227 115.906 20.6119 115.938 20.7089C115.971 20.8059 115.982 20.9087 115.971 21.0104L115.612 25.6119C115.596 25.8288 115.499 26.0317 115.341 26.1811C115.182 26.3304 114.974 26.4155 114.757 26.4196V26.4196Z" fill="black"/>
<path d="M105.258 21.6465H101.601L101.744 19.8148C101.789 19.3208 102.015 18.8609 102.378 18.5233C102.741 18.1858 103.217 17.9945 103.713 17.9863V17.9863C103.947 17.9825 104.181 18.0284 104.396 18.1209C104.612 18.2133 104.806 18.3503 104.966 18.5229C105.125 18.6955 105.246 18.8998 105.321 19.1224C105.396 19.345 105.424 19.581 105.401 19.8148L105.258 21.6465Z" fill="#87878B"/>
<path opacity="0.4" d="M105.258 21.6465H101.601L101.744 19.8148C101.789 19.3208 102.015 18.8609 102.378 18.5233C102.741 18.1858 103.217 17.9945 103.713 17.9863V17.9863C103.947 17.9825 104.181 18.0284 104.396 18.1209C104.612 18.2133 104.806 18.3503 104.966 18.5229C105.125 18.6955 105.246 18.8998 105.321 19.1224C105.396 19.345 105.424 19.581 105.401 19.8148L105.258 21.6465Z" fill="white"/>
<path d="M120.71 101.455H73.7283L79.7258 24.553H126.704L120.71 101.455Z" fill="white"/>
<path d="M110.41 28.5788H95.4C95.1594 28.5822 94.9208 28.5348 94.6998 28.4396C94.4787 28.3445 94.2802 28.2038 94.1173 28.0267C93.9543 27.8497 93.8305 27.6402 93.754 27.412C93.6775 27.1839 93.65 26.9421 93.6733 26.7026L93.8641 24.2604C93.9103 23.7538 94.1419 23.282 94.5146 22.9358C94.8873 22.5895 95.3748 22.3931 95.8834 22.3842H110.896C111.137 22.3809 111.376 22.4283 111.597 22.5234C111.818 22.6185 112.017 22.7592 112.18 22.9362C112.343 23.1132 112.467 23.3226 112.544 23.5508C112.621 23.7789 112.649 24.0207 112.626 24.2604L112.435 26.7026C112.388 27.2098 112.155 27.6816 111.781 28.0278C111.407 28.3739 110.919 28.5701 110.41 28.5788V28.5788ZM95.8262 23.0234C95.4906 23.029 95.169 23.1585 94.9231 23.3868C94.6772 23.6151 94.5243 23.9262 94.4937 24.2604L94.3029 26.7026C94.2873 26.8608 94.3052 27.0204 94.3554 27.1712C94.4057 27.3219 94.4872 27.4604 94.5947 27.5774C94.7022 27.6945 94.8331 27.7876 94.979 27.8505C95.1249 27.9135 95.2825 27.945 95.4414 27.9428H110.457C110.794 27.9372 111.116 27.8074 111.363 27.5785C111.609 27.3496 111.762 27.0377 111.793 26.7026L111.984 24.2604C111.998 24.1023 111.98 23.943 111.929 23.7926C111.878 23.6422 111.796 23.5042 111.688 23.3876C111.581 23.2709 111.45 23.1782 111.304 23.1155C111.158 23.0527 111.001 23.0214 110.842 23.0234H95.8262Z" fill="#87878B"/>
<g opacity="0.4">
<path opacity="0.4" d="M110.41 28.5788H95.4C95.1594 28.5822 94.9208 28.5348 94.6998 28.4396C94.4787 28.3445 94.2802 28.2038 94.1173 28.0267C93.9543 27.8497 93.8305 27.6402 93.754 27.412C93.6775 27.1839 93.65 26.9421 93.6733 26.7026L93.8641 24.2604C93.9103 23.7538 94.1419 23.282 94.5146 22.9358C94.8873 22.5895 95.3748 22.3931 95.8834 22.3842H110.896C111.137 22.3809 111.376 22.4283 111.597 22.5234C111.818 22.6185 112.017 22.7592 112.18 22.9362C112.343 23.1132 112.467 23.3226 112.544 23.5508C112.621 23.7789 112.649 24.0207 112.626 24.2604L112.435 26.7026C112.388 27.2098 112.155 27.6816 111.781 28.0278C111.407 28.3739 110.919 28.5701 110.41 28.5788V28.5788ZM95.8262 23.0234C95.4906 23.029 95.169 23.1585 94.9231 23.3868C94.6772 23.6151 94.5243 23.9262 94.4937 24.2604L94.3029 26.7026C94.2873 26.8608 94.3052 27.0204 94.3554 27.1712C94.4057 27.3219 94.4872 27.4604 94.5947 27.5774C94.7022 27.6945 94.8331 27.7876 94.979 27.8505C95.1249 27.9135 95.2825 27.945 95.4414 27.9428H110.457C110.794 27.9372 111.116 27.8074 111.363 27.5785C111.609 27.3496 111.762 27.0377 111.793 26.7026L111.984 24.2604C111.998 24.1023 111.98 23.943 111.929 23.7926C111.878 23.6422 111.796 23.5042 111.688 23.3876C111.581 23.2709 111.45 23.1782 111.304 23.1155C111.158 23.0527 111.001 23.0214 110.842 23.0234H95.8262Z" fill="white"/>
</g>
<path d="M109.634 23.7931H96.9138C96.8577 23.7942 96.8019 23.7835 96.7503 23.7616C96.6986 23.7397 96.6522 23.707 96.6141 23.6659C96.5759 23.6247 96.5469 23.576 96.5289 23.5228C96.511 23.4696 96.5045 23.4133 96.5099 23.3574L96.6085 22.0854C96.6202 21.9673 96.6749 21.8576 96.7623 21.7772C96.8497 21.6969 96.9636 21.6515 97.0823 21.6498H109.802C109.858 21.6485 109.914 21.6593 109.965 21.6812C110.017 21.7032 110.063 21.7358 110.101 21.777C110.139 21.8183 110.168 21.8671 110.185 21.9203C110.203 21.9734 110.209 22.0297 110.203 22.0854L110.104 23.3574C110.093 23.4753 110.039 23.5849 109.952 23.6653C109.866 23.7457 109.752 23.7912 109.634 23.7931Z" fill="#87878B"/>
<path d="M120.404 35.7878H84.7883L85.0904 31.9019H120.706L120.404 35.7878Z" fill="#87878B"/>
<path d="M105.989 41.197H82.2793L82.3588 40.1953H106.069L105.989 41.197Z" fill="#87878B"/>
<path d="M105.767 44.0908H82.0566L82.133 43.0859H105.843L105.767 44.0908Z" fill="#87878B"/>
<path d="M105.541 46.9846H81.8311L81.9074 45.9797H105.617L105.541 46.9846Z" fill="#87878B"/>
<path d="M105.315 49.8755H81.6052L81.6815 48.8738H105.392L105.315 49.8755Z" fill="#87878B"/>
<path d="M120.872 49.8752H111.198L111.955 40.1953H121.629L120.872 49.8752Z" fill="#87878B"/>
<path d="M118.194 43.7888C118.239 43.2228 117.8 42.8348 117.005 42.8348C116.696 42.8201 116.388 42.8754 116.104 42.9966C115.82 43.1178 115.567 43.3016 115.364 43.5344L114.753 43.0733C115.05 42.7425 115.416 42.4818 115.826 42.3102C116.236 42.1385 116.679 42.0603 117.123 42.0812C118.395 42.0812 119.177 42.6758 119.097 43.6712C118.983 45.1499 117.409 45.2612 117.32 46.4092H116.432C116.544 45.01 118.115 44.8064 118.194 43.7888ZM116.197 47.837C116.209 47.6784 116.281 47.5305 116.4 47.4248C116.519 47.3191 116.674 47.2639 116.833 47.271C116.906 47.2681 116.979 47.2812 117.047 47.3093C117.114 47.3374 117.175 47.3798 117.225 47.4336C117.274 47.4874 117.311 47.5514 117.334 47.621C117.356 47.6906 117.363 47.7643 117.355 47.837C117.343 47.9908 117.273 48.1345 117.16 48.2394C117.047 48.3443 116.898 48.4027 116.744 48.403C116.669 48.4086 116.594 48.3976 116.524 48.3709C116.454 48.3441 116.39 48.3022 116.338 48.2482C116.286 48.1942 116.246 48.1294 116.222 48.0583C116.197 47.9872 116.189 47.9117 116.197 47.837V47.837Z" fill="white"/>
<path d="M104.848 55.8474H81.1377L81.2172 54.8425H104.927L104.848 55.8474Z" fill="#87878B"/>
<path d="M104.622 58.738H80.9119L80.9914 57.7363H104.701L104.622 58.738Z" fill="#87878B"/>
<path d="M104.399 61.6318H80.6892L80.7655 60.6301H104.476L104.399 61.6318Z" fill="#87878B"/>
<path d="M104.174 64.5256H80.4636L80.5399 63.5208H104.25L104.174 64.5256Z" fill="#87878B"/>
<path d="M119.73 64.5256H110.057L110.81 54.8425H120.484L119.73 64.5256Z" fill="#87878B"/>
<path d="M117.053 58.4392C117.097 57.87 116.658 57.4852 115.863 57.4852C115.555 57.4705 115.247 57.5258 114.963 57.6469C114.678 57.7681 114.425 57.952 114.222 58.1848L113.612 57.73C113.908 57.3986 114.274 57.1376 114.684 56.9659C115.094 56.7942 115.537 56.7163 115.981 56.7379C117.253 56.7379 118.035 57.3325 117.956 58.3279C117.841 59.8066 116.267 59.9179 116.178 61.0659H115.291C115.399 59.638 116.973 59.4568 117.053 58.4392ZM115.056 62.5C115.066 62.3437 115.136 62.1974 115.252 62.0915C115.367 61.9855 115.519 61.928 115.676 61.9308C115.749 61.9279 115.822 61.941 115.89 61.9693C115.958 61.9976 116.019 62.0403 116.068 62.0945C116.118 62.1487 116.155 62.213 116.178 62.283C116.2 62.3531 116.206 62.4271 116.197 62.5C116.184 62.6536 116.115 62.7968 116.002 62.9016C115.889 63.0063 115.741 63.065 115.587 63.0661C115.513 63.0692 115.44 63.0565 115.371 63.0287C115.303 63.0008 115.242 62.9586 115.191 62.9049C115.141 62.8511 115.103 62.7871 115.079 62.7173C115.056 62.6474 115.048 62.5733 115.056 62.5V62.5Z" fill="white"/>
<path d="M103.706 70.4944H79.9961L80.0756 69.4927H103.786L103.706 70.4944Z" fill="#87878B"/>
<path d="M103.48 73.3882H79.7703L79.8498 72.3833H103.56L103.48 73.3882Z" fill="#87878B"/>
<path d="M103.255 76.2822H79.5479L79.6242 75.2773H103.334L103.255 76.2822Z" fill="#87878B"/>
<path d="M103.032 79.1726H79.322L79.3983 78.1709H103.108L103.032 79.1726Z" fill="#87878B"/>
<path d="M118.589 79.1726H108.915L109.669 69.4927H119.342L118.589 79.1726Z" fill="#87878B"/>
<path d="M115.911 73.0862C115.955 72.5202 115.517 72.1322 114.718 72.1322C114.41 72.1178 114.103 72.1732 113.819 72.2943C113.536 72.4155 113.283 72.5992 113.081 72.8318L112.47 72.358C112.766 72.0266 113.133 71.7655 113.543 71.5938C113.952 71.4222 114.395 71.3443 114.839 71.3658C116.111 71.3658 116.89 71.9573 116.814 72.9399C116.7 74.4218 115.126 74.5299 115.036 75.6779H114.162C114.257 74.301 115.831 74.1038 115.911 73.0862ZM113.914 77.128C113.925 76.9722 113.996 76.8267 114.111 76.7214C114.227 76.6162 114.378 76.5591 114.534 76.5619C114.607 76.5591 114.68 76.5722 114.748 76.6003C114.815 76.6283 114.876 76.6708 114.925 76.7246C114.975 76.7784 115.012 76.8423 115.035 76.912C115.057 76.9816 115.064 77.0553 115.056 77.128C115.044 77.2818 114.974 77.4255 114.861 77.5304C114.748 77.6353 114.599 77.6937 114.445 77.694C114.371 77.6977 114.298 77.6853 114.229 77.6577C114.161 77.6301 114.099 77.5878 114.048 77.534C113.998 77.4801 113.96 77.4159 113.936 77.3458C113.913 77.2757 113.906 77.2014 113.914 77.128V77.128Z" fill="white"/>
<path d="M102.565 85.1448H78.8545L78.934 84.1399H102.644L102.565 85.1448Z" fill="#87878B"/>
<path d="M102.339 88.0386H78.6287L78.7082 87.0337H102.418L102.339 88.0386Z" fill="#87878B"/>
<path d="M102.113 90.9292H78.4028L78.4823 89.9275H102.192L102.113 90.9292Z" fill="#87878B"/>
<path d="M101.887 93.823H78.1772L78.2567 92.8181H101.967L101.887 93.823Z" fill="#87878B"/>
<path d="M117.447 93.823H107.773L108.527 84.1399H118.201L117.447 93.823Z" fill="#87878B"/>
<path d="M114.769 87.7363C114.814 87.1671 114.375 86.7823 113.577 86.7823C113.269 86.7676 112.961 86.823 112.678 86.9441C112.394 87.0653 112.142 87.2492 111.939 87.4819L111.329 87.0208C111.625 86.6894 111.991 86.4283 112.401 86.2567C112.811 86.085 113.254 86.0071 113.698 86.0287C114.97 86.0287 115.749 86.6233 115.672 87.6187C115.558 89.0974 113.984 89.2087 113.895 90.3567H113.008C113.116 88.9479 114.69 88.7539 114.769 87.7363ZM112.772 91.7845C112.783 91.6282 112.853 91.4819 112.969 91.3759C113.084 91.27 113.236 91.2125 113.392 91.2153C113.466 91.2124 113.539 91.2255 113.607 91.2538C113.675 91.282 113.736 91.3247 113.785 91.3789C113.835 91.4331 113.872 91.4975 113.894 91.5675C113.917 91.6375 113.923 91.7116 113.914 91.7845C113.901 91.938 113.832 92.0813 113.719 92.186C113.606 92.2908 113.457 92.3495 113.303 92.3505C113.23 92.3537 113.156 92.3409 113.088 92.3131C113.02 92.2853 112.958 92.2431 112.908 92.1893C112.858 92.1356 112.819 92.0716 112.796 92.0017C112.773 91.9319 112.764 91.8578 112.772 91.7845V91.7845Z" fill="white"/>
<path opacity="0.7" d="M120.404 35.7878H84.7883L85.0904 31.9019H120.706L120.404 35.7878Z" fill="white"/>
<path opacity="0.7" d="M105.989 41.197H82.2793L82.3588 40.1953H106.069L105.989 41.197Z" fill="white"/>
<path opacity="0.7" d="M105.767 44.0908H82.0566L82.133 43.0859H105.843L105.767 44.0908Z" fill="white"/>
<path opacity="0.7" d="M105.541 46.9846H81.8311L81.9074 45.9797H105.617L105.541 46.9846Z" fill="white"/>
<path opacity="0.7" d="M105.315 49.8755H81.6052L81.6815 48.8738H105.392L105.315 49.8755Z" fill="white"/>
<path opacity="0.7" d="M120.872 49.8752H111.198L111.955 40.1953H121.629L120.872 49.8752Z" fill="white"/>
<path opacity="0.7" d="M104.848 55.8474H81.1377L81.2172 54.8425H104.927L104.848 55.8474Z" fill="white"/>
<path opacity="0.7" d="M104.622 58.738H80.9119L80.9914 57.7363H104.701L104.622 58.738Z" fill="white"/>
<path opacity="0.7" d="M104.399 61.6318H80.6892L80.7655 60.6301H104.476L104.399 61.6318Z" fill="white"/>
<path opacity="0.7" d="M104.174 64.5256H80.4636L80.5399 63.5208H104.25L104.174 64.5256Z" fill="white"/>
<path opacity="0.7" d="M119.73 64.5256H110.057L110.81 54.8425H120.484L119.73 64.5256Z" fill="white"/>
<path opacity="0.7" d="M103.706 70.4944H79.9961L80.0756 69.4927H103.786L103.706 70.4944Z" fill="white"/>
<path opacity="0.7" d="M103.48 73.3882H79.7703L79.8498 72.3833H103.56L103.48 73.3882Z" fill="white"/>
<path opacity="0.7" d="M103.255 76.2822H79.5479L79.6242 75.2773H103.334L103.255 76.2822Z" fill="white"/>
<path opacity="0.7" d="M103.032 79.1726H79.322L79.3983 78.1709H103.108L103.032 79.1726Z" fill="white"/>
<path opacity="0.7" d="M118.589 79.1726H108.915L109.669 69.4927H119.342L118.589 79.1726Z" fill="white"/>
<path opacity="0.7" d="M102.565 85.1448H78.8545L78.934 84.1399H102.644L102.565 85.1448Z" fill="white"/>
<path opacity="0.7" d="M102.339 88.0386H78.6287L78.7082 87.0337H102.418L102.339 88.0386Z" fill="white"/>
<path opacity="0.7" d="M102.113 90.9292H78.4028L78.4823 89.9275H102.192L102.113 90.9292Z" fill="white"/>
<path opacity="0.7" d="M101.887 93.823H78.1772L78.2567 92.8181H101.967L101.887 93.823Z" fill="white"/>
<path opacity="0.7" d="M117.447 93.823H107.773L108.527 84.1399H118.201L117.447 93.823Z" fill="white"/>
<path d="M63.6 64.7261V73.4838C63.6023 75.2107 62.9356 76.8712 61.7397 78.1171L53.5671 86.6681H58.194L66.6846 78.311C67.3179 77.6883 67.8211 76.946 68.1651 76.1271C68.509 75.3082 68.6867 74.4292 68.688 73.541V64.7261H63.6Z" fill="#87878B"/>
<path opacity="0.4" d="M68.688 64.7261V73.5315C68.6893 74.0249 68.6338 74.5168 68.5227 74.9975C68.2443 76.2569 67.6057 77.4082 66.6846 78.311L58.194 86.6681H53.5671L61.7397 78.1171C62.9356 76.8712 63.6023 75.2107 63.6 73.4838V64.7261H68.688Z" fill="white"/>
<path opacity="0.2" d="M68.6881 64.7261V73.5315C68.6893 74.0249 68.6339 74.5168 68.5227 74.9975L63.6001 73.01V64.7261H68.6881Z" fill="black"/>
<path d="M50.3522 87.6221L43.5025 113.717C43.4411 113.955 43.3026 114.165 43.1086 114.315C42.9146 114.466 42.6762 114.547 42.4308 114.547H30.191C30.0902 114.547 29.9908 114.523 29.9004 114.479C29.81 114.434 29.731 114.369 29.6695 114.29C29.6077 114.21 29.5652 114.117 29.5454 114.018C29.5255 113.92 29.5288 113.818 29.555 113.72L36.4079 87.6221H35.0914L28.3243 113.396C28.2502 113.682 28.2423 113.98 28.3013 114.27C28.3603 114.559 28.4845 114.831 28.6646 115.064C28.8447 115.298 29.0759 115.488 29.3404 115.619C29.6049 115.749 29.8959 115.818 30.191 115.819H42.4308C42.957 115.819 43.4683 115.644 43.8848 115.323C44.3013 115.001 44.5996 114.551 44.7331 114.042L51.6655 87.6221H50.3522Z" fill="#87878B"/>
<g opacity="0.4">
<path opacity="0.4" d="M50.3522 87.6221L43.5025 113.717C43.4411 113.955 43.3026 114.165 43.1086 114.315C42.9146 114.466 42.6762 114.547 42.4308 114.547H30.191C30.0902 114.547 29.9908 114.523 29.9004 114.479C29.81 114.434 29.731 114.369 29.6695 114.29C29.6077 114.21 29.5652 114.117 29.5454 114.018C29.5255 113.92 29.5288 113.818 29.555 113.72L36.4079 87.6221H35.0914L28.3243 113.396C28.2502 113.682 28.2423 113.98 28.3013 114.27C28.3603 114.559 28.4845 114.831 28.6646 115.064C28.8447 115.298 29.0759 115.488 29.3404 115.619C29.6049 115.749 29.8959 115.818 30.191 115.819H42.4308C42.957 115.819 43.4683 115.644 43.8848 115.323C44.3013 115.001 44.5996 114.551 44.7331 114.042L51.6655 87.6221H50.3522Z" fill="white"/>
</g>
<path d="M53.1536 115.819L45.6647 87.2627L44.4341 87.5839L51.8371 115.819H53.1536Z" fill="#87878B"/>
<path d="M68.4178 115.819L60.9289 87.2627L59.6982 87.5839L67.1013 115.819H68.4178Z" fill="#87878B"/>
<g opacity="0.5">
<path opacity="0.5" d="M53.1536 115.819L45.6647 87.2627L44.4341 87.5839L51.8371 115.819H53.1536Z" fill="white"/>
</g>
<g opacity="0.5">
<path opacity="0.5" d="M68.4178 115.819L60.9289 87.2627L59.6982 87.5839L67.1013 115.819H68.4178Z" fill="white"/>
</g>
<path opacity="0.2" d="M35.0914 87.6221H36.4079L35.3744 91.5557L34.1565 91.1837L35.0914 87.6221Z" fill="black"/>
<path opacity="0.2" d="M45.6647 87.2627L47.366 93.7531L45.9382 93.3206L44.4341 87.5839L45.6647 87.2627Z" fill="black"/>
<path opacity="0.2" d="M50.3521 87.6221H51.6655L49.5094 95.8583L48.2883 95.4862L50.3521 87.6221Z" fill="black"/>
<path opacity="0.2" d="M63.934 98.7996L62.4998 98.3608L59.6982 87.6633L60.9289 87.3135L63.934 98.7996Z" fill="black"/>
<path d="M33.9307 88.0576L27.9841 55.8665L27.9046 55.38C27.8458 55.0793 27.8538 54.7693 27.928 54.4721C28.0022 54.1748 28.1407 53.8974 28.3339 53.6596C28.5204 53.4362 28.7546 53.2574 29.0193 53.1363C29.284 53.0153 29.5724 52.955 29.8634 52.96H42.7361C43.347 52.9901 43.9306 53.2227 44.3947 53.6211C44.8588 54.0196 45.177 54.5612 45.2992 55.1606L45.3946 55.7043L51.338 87.8223L50.0851 88.0513L44.1226 55.8379L44.0462 55.3863C43.9801 55.0791 43.8171 54.8012 43.5813 54.5934C43.3454 54.3856 43.0492 54.259 42.7361 54.232H29.8507C29.7462 54.2279 29.6422 54.2476 29.5464 54.2894C29.4505 54.3313 29.3654 54.3943 29.2974 54.4737C29.2231 54.5706 29.171 54.6826 29.1446 54.8018C29.1182 54.921 29.1183 55.0445 29.1448 55.1637L29.2338 55.698L35.1836 87.8159L33.9307 88.0576Z" fill="#87878B"/>
<g opacity="0.5">
<path opacity="0.5" d="M33.9307 88.0576L27.9841 55.8665L27.9046 55.38C27.8458 55.0793 27.8538 54.7693 27.928 54.4721C28.0022 54.1748 28.1407 53.8974 28.3339 53.6596C28.5204 53.4362 28.7546 53.2574 29.0193 53.1363C29.284 53.0153 29.5724 52.955 29.8634 52.96H42.7361C43.347 52.9901 43.9306 53.2227 44.3947 53.6211C44.8588 54.0196 45.177 54.5612 45.2992 55.1606L45.3946 55.7043L51.338 87.8223L50.0851 88.0513L44.1226 55.8379L44.0462 55.3863C43.9801 55.0791 43.8171 54.8012 43.5813 54.5934C43.3454 54.3856 43.0492 54.259 42.7361 54.232H29.8507C29.7462 54.2279 29.6422 54.2476 29.5464 54.2894C29.4505 54.3313 29.3654 54.3943 29.2974 54.4737C29.2231 54.5706 29.171 54.6826 29.1446 54.8018C29.1182 54.921 29.1183 55.0445 29.1448 55.1637L29.2338 55.698L35.1836 87.8159L33.9307 88.0576Z" fill="white"/>
</g>
<path d="M36.5319 84.865H60.9956C61.4173 84.865 61.8218 85.0325 62.1199 85.3307C62.4181 85.6289 62.5856 86.0333 62.5856 86.455V88.576H34.9419V86.4486C34.9436 86.028 35.1118 85.6252 35.4098 85.3284C35.7078 85.0316 36.1113 84.865 36.5319 84.865V84.865Z" fill="#87878B"/>
<path d="M62.9673 86.7251H34.5603C34.2073 86.7251 33.9211 87.0113 33.9211 87.3643V87.943C33.9211 88.296 34.2073 88.5822 34.5603 88.5822H62.9673C63.3203 88.5822 63.6064 88.296 63.6064 87.943V87.3643C63.6064 87.0113 63.3203 86.7251 62.9673 86.7251Z" fill="#87878B"/>
<path opacity="0.6" d="M62.9673 86.7251H34.5603C34.2073 86.7251 33.9211 87.0113 33.9211 87.3643V87.943C33.9211 88.296 34.2073 88.5822 34.5603 88.5822H62.9673C63.3203 88.5822 63.6064 88.296 63.6064 87.943V87.3643C63.6064 87.0113 63.3203 86.7251 62.9673 86.7251Z" fill="white"/>
<path d="M47.1689 68.86H31.0049L28.5945 55.822H44.7552L47.1466 68.7392L47.1689 68.86Z" fill="#87878B"/>
<path d="M63.0692 41.0763C63.0692 41.0763 61.0371 36.3572 60.8622 35.8515C60.6873 35.3459 60.894 32.7924 60.7382 32.3535C60.5824 31.9147 58.2228 31.5999 57.7236 31.6571C57.2243 31.7144 57.6632 35.6639 57.8699 35.9756C58.1394 36.2962 58.4433 36.5862 58.7762 36.8405L60.5729 42.2465L63.0692 41.0763Z" fill="#87878B"/>
<path d="M52.788 49.9835C54.1745 50.2029 59.8508 51.0233 61.1196 50.1774C62.1436 49.4937 59.2594 38.4115 59.2594 38.4115L61.8256 37.3652C61.8256 37.3652 67.9217 50.7912 64.6654 53.8567C63.0118 55.4149 58.3626 55.8092 51.675 55.8092L52.788 49.9835Z" fill="#87878B"/>
<path opacity="0.8" d="M52.788 49.9835C54.1745 50.2029 59.8508 51.0233 61.1196 50.1774C62.1436 49.4937 59.2594 38.4115 59.2594 38.4115L61.8256 37.3652C61.8256 37.3652 67.9217 50.7912 64.6654 53.8567C63.0118 55.4149 58.3626 55.8092 51.675 55.8092L52.788 49.9835Z" fill="white"/>
<path opacity="0.1" d="M55.1382 55.7773C54.1524 55.8059 53.0998 55.8186 51.9932 55.8186L52.9472 52.1648C53.9808 53.1567 54.7363 54.4022 55.1382 55.7773V55.7773Z" fill="black"/>
<path d="M60.7922 57.7268L67.5211 64.8437" stroke="#2E353A" stroke-width="2" stroke-miterlimit="10"/>
<path d="M55.968 61.9181C55.968 61.9181 61.1037 61.7591 61.638 61.705C62.1722 61.651 64.395 60.379 64.872 60.3281C65.349 60.2772 66.621 62.287 66.78 62.764C66.939 63.241 63.1771 64.513 62.805 64.4621C62.4007 64.3517 62.0094 64.1982 61.638 64.0042L55.968 64.672V61.9181Z" fill="#87878B"/>
<path d="M52.947 113.326L55.4815 112.979L55.8313 106.956L53.3032 107.306L52.947 113.326Z" fill="#87878B"/>
<path d="M55.6723 112.674L52.8103 112.493C52.7625 112.489 52.7151 112.504 52.6778 112.534C52.6406 112.564 52.6163 112.607 52.6099 112.655V112.655L52.3301 114.913C52.3222 115.031 52.3617 115.148 52.4398 115.237C52.5179 115.327 52.6282 115.382 52.7467 115.39C53.7452 115.437 54.2254 115.409 55.4846 115.479C56.2606 115.523 57.7838 115.689 58.8491 115.584C59.9144 115.479 59.784 114.429 59.3261 114.378C58.2322 114.254 56.7821 113.453 56.1016 112.843C55.9811 112.74 55.8301 112.681 55.6723 112.674V112.674Z" fill="#2E353A"/>
<path d="M56.5501 113.164C56.3213 113.143 56.0953 113.098 55.8759 113.03C55.8647 113.027 55.8546 113.021 55.8467 113.013C55.8388 113.004 55.8335 112.994 55.8314 112.982C55.8308 112.971 55.833 112.959 55.838 112.948C55.843 112.938 55.8506 112.929 55.86 112.922C55.9459 112.871 56.6995 112.423 57.0048 112.563C57.039 112.579 57.0683 112.604 57.09 112.635C57.1117 112.667 57.1251 112.703 57.1288 112.741C57.1442 112.797 57.1437 112.857 57.1274 112.913C57.1111 112.969 57.0797 113.019 57.0366 113.059C56.8933 113.153 56.7197 113.191 56.5501 113.164V113.164ZM56.9539 112.683C56.7918 112.607 56.3529 112.795 56.0445 112.963C56.496 113.081 56.8299 113.087 56.9603 112.979C56.9865 112.952 57.0051 112.918 57.0146 112.881C57.0241 112.845 57.024 112.806 57.0144 112.769C57.013 112.751 57.0067 112.733 56.9961 112.718C56.9854 112.703 56.9709 112.691 56.9539 112.683V112.683Z" fill="#87878B"/>
<path d="M55.8885 113.03C55.8803 113.033 55.8713 113.033 55.8631 113.03C55.8469 113.019 55.8356 113.002 55.8313 112.982C55.8313 112.96 55.8313 112.213 56.0921 111.981C56.128 111.951 56.17 111.93 56.215 111.918C56.2601 111.907 56.3071 111.905 56.3528 111.914C56.4032 111.918 56.4507 111.94 56.4876 111.974C56.5245 112.009 56.5487 112.055 56.5563 112.105C56.5977 112.388 56.1843 112.897 55.9203 113.03C55.9154 113.032 55.9099 113.034 55.9044 113.034C55.899 113.034 55.8935 113.032 55.8885 113.03ZM56.3019 112.038C56.2781 112.036 56.2541 112.04 56.2316 112.048C56.2091 112.056 56.1887 112.069 56.1716 112.086C56.0062 112.222 55.9649 112.642 55.9553 112.881C56.202 112.7 56.374 112.435 56.4387 112.137C56.4387 112.102 56.4164 112.057 56.3306 112.041L56.3019 112.038Z" fill="#87878B"/>
<path opacity="0.2" d="M53.3034 107.306L55.8315 106.959L55.6311 110.4L53.1062 110.623L53.3034 107.306Z" fill="black"/>
<path d="M53.049 77.9262L52.4321 74.0529L38.2302 73.2039C38.2302 73.2039 36.7197 81.262 37.8804 83.4085C39.9506 87.2404 51.1156 85.3165 54.3815 85.6822C52.4289 93.6672 52.6197 109.271 52.6197 109.271L57.2848 109.628C57.2848 109.628 60.875 92.8149 61.6001 84.8236C62.0898 79.4335 57.6219 79.567 53.049 77.9262Z" fill="#2E353A"/>
<path d="M52.0727 109.491L57.679 109.86L58.1592 107.459L51.9995 107.173L52.0727 109.491Z" fill="#87878B"/>
<path d="M58.792 111.078L61.3423 111.265L62.9387 105.449L60.3915 105.265L58.792 111.078Z" fill="#87878B"/>
<path d="M61.5937 111.004L58.8303 110.235C58.7847 110.22 58.735 110.223 58.6921 110.245C58.6492 110.266 58.6165 110.304 58.6013 110.349V110.349L57.8572 112.499C57.8413 112.556 57.8369 112.616 57.8443 112.676C57.8517 112.735 57.8708 112.792 57.9003 112.843C57.9299 112.895 57.9694 112.941 58.0166 112.977C58.0637 113.013 58.1176 113.04 58.1752 113.055C59.1292 113.307 59.6157 113.373 60.8337 113.711C61.581 113.917 63.0374 114.394 64.1027 114.515C65.168 114.636 65.257 113.58 64.8182 113.437C63.7752 113.087 62.5286 112 61.9848 111.262C61.8874 111.134 61.7495 111.043 61.5937 111.004Z" fill="#2E353A"/>
<path d="M62.3504 111.669C62.1286 111.603 61.9152 111.511 61.7144 111.396C61.7038 111.391 61.6949 111.384 61.6892 111.374C61.6834 111.364 61.6811 111.353 61.6826 111.342C61.6834 111.33 61.6873 111.319 61.6941 111.309C61.7008 111.3 61.71 111.292 61.7207 111.288C61.813 111.256 62.6461 110.97 62.9132 111.176C62.9441 111.199 62.9685 111.23 62.9841 111.265C62.9997 111.3 63.006 111.338 63.0023 111.377C63.0063 111.437 62.9932 111.497 62.9645 111.549C62.9358 111.602 62.8927 111.646 62.8401 111.675C62.6818 111.734 62.5071 111.732 62.3504 111.669V111.669ZM62.8433 111.281C62.7002 111.173 62.2327 111.281 61.8893 111.367C62.3059 111.577 62.6334 111.653 62.7797 111.574C62.8116 111.553 62.8374 111.524 62.8547 111.49C62.872 111.456 62.8801 111.418 62.8783 111.38C62.8816 111.361 62.8794 111.342 62.8721 111.324C62.8648 111.307 62.8526 111.292 62.8369 111.281H62.8433Z" fill="#87878B"/>
<path d="M61.7303 111.402H61.6922C61.6848 111.395 61.6791 111.387 61.6758 111.377C61.6725 111.368 61.6715 111.358 61.6731 111.348C61.6731 111.326 61.8225 110.594 62.1342 110.422C62.176 110.403 62.2216 110.393 62.2677 110.393C62.3139 110.393 62.3594 110.403 62.4013 110.422C62.4502 110.438 62.4926 110.469 62.5219 110.511C62.5512 110.553 62.5659 110.603 62.5635 110.655C62.5412 110.938 62.0324 111.351 61.7462 111.427C61.7381 111.421 61.7325 111.412 61.7303 111.402V111.402ZM62.3282 110.518C62.3053 110.511 62.2813 110.51 62.2578 110.513C62.2343 110.516 62.2117 110.524 62.1914 110.537C62.0006 110.639 61.8734 111.039 61.813 111.272C62.0738 111.151 62.4172 110.83 62.449 110.636C62.449 110.601 62.449 110.556 62.3632 110.524L62.3282 110.518Z" fill="#87878B"/>
<path opacity="0.2" d="M60.3916 105.265L62.9388 105.452L62.0261 108.775L59.5076 108.467L60.3916 105.265Z" fill="black"/>
<path d="M63.8037 108.365L59.3135 107.045C59.3135 107.045 62.0101 91.9148 64.7131 86.6678C64.5096 86.6011 64.2393 86.5152 63.9054 86.4166C63.3044 86.2354 62.5062 86.0096 61.5681 85.7488C55.0428 83.9394 41.8171 80.5463 41.8171 80.5463L47.8591 74.9082C47.8591 74.9082 71.9254 78.5779 72.4246 84.9188C72.6631 87.9685 63.8037 108.365 63.8037 108.365Z" fill="#2E353A"/>
<path d="M58.7349 107.144L64.1409 108.673L65.1108 106.425L59.1451 104.861L58.7349 107.144Z" fill="#87878B"/>
<path opacity="0.2" d="M63.9181 86.4167C63.3171 86.2355 62.5189 86.0097 61.5808 85.7489C61.7684 84.2098 61.7716 82.4449 61.0306 81.545C59.5583 79.7515 55.7709 78.6989 53.6149 78.3173C51.8118 77.9993 45.7539 77.3633 45.7539 77.3633C45.7539 77.3633 53.6149 76.6096 61.6539 78.9533C65.6098 80.1171 64.8371 83.9999 63.9181 86.4167Z" fill="black"/>
<path d="M52.7882 49.9834C52.7882 49.9834 54.8488 57.6154 52.4416 74.0528C47.9546 73.9574 40.4148 73.7825 38.2302 73.7348C38.1761 71.4452 39.8647 60.2262 37.8899 49.4047C39.312 49.1594 40.7499 49.017 42.1924 48.9785C44.3038 48.9032 46.4177 48.9489 48.5238 49.1153C49.9655 49.2945 51.3912 49.5848 52.7882 49.9834V49.9834Z" fill="#87878B"/>
<path opacity="0.7" d="M52.7882 49.9834C52.7882 49.9834 54.8488 57.6154 52.4416 74.0528C47.9546 73.9574 40.4148 73.7825 38.2302 73.7348C38.1761 71.4452 39.8647 60.2262 37.8899 49.4047C39.312 49.1594 40.7499 49.017 42.1924 48.9785C44.3038 48.9032 46.4177 48.9489 48.5238 49.1153C49.9655 49.2945 51.3912 49.5848 52.7882 49.9834V49.9834Z" fill="white"/>
<path opacity="0.1" d="M42.8762 63.349C41.6042 63.0691 40.0873 61.8448 38.8376 60.6364C38.8376 58.4868 38.7326 56.2003 38.5005 53.8694C40.2686 56.4865 45.0577 63.8292 42.8762 63.349Z" fill="black"/>
<path d="M37.8803 49.4048C33.0181 51.157 41.5532 64.3222 44.2021 65.68C46.8511 67.0379 60.3152 64.195 60.3152 64.195L59.7842 61.4729C59.7842 61.4729 47.8719 61.775 46.7748 61.4983C45.6777 61.2217 43.0701 55.609 41.5691 52.96C40.7347 51.4235 39.4465 50.182 37.8803 49.4048V49.4048Z" fill="#87878B"/>
<path opacity="0.8" d="M37.8803 49.4048C33.0181 51.157 41.5532 64.3222 44.2021 65.68C46.8511 67.0379 60.3152 64.195 60.3152 64.195L59.7842 61.4729C59.7842 61.4729 47.8719 61.775 46.7748 61.4983C45.6777 61.2217 43.0701 55.609 41.5691 52.96C40.7347 51.4235 39.4465 50.182 37.8803 49.4048V49.4048Z" fill="white"/>
<path d="M58.8301 61.2278L59.5201 64.8434L60.7921 64.4078L60.3151 61.2278H58.8301Z" fill="#87878B"/>
<path opacity="0.7" d="M58.8301 61.2278L59.5201 64.8434L60.7921 64.4078L60.3151 61.2278H58.8301Z" fill="white"/>
<path d="M59.1736 39.2161L62.5953 37.8614L61.9307 36.6943L58.8938 37.7565L59.1736 39.2161Z" fill="#87878B"/>
<path opacity="0.7" d="M59.1736 39.2161L62.5953 37.8614L61.9307 36.6943L58.8938 37.7565L59.1736 39.2161Z" fill="white"/>
<path opacity="0.1" d="M41.4165 49.0104C41.4165 49.0104 41.5087 50.4954 44.4248 51.9264L46.4409 50.4668C46.4409 50.4668 47.0165 54.1938 47.3949 56.9763C47.3949 56.9763 47.3695 52.5243 46.9879 50.8134L48.5302 51.3604C48.5302 51.3604 47.2168 49.1058 44.9813 48.5874C42.7457 48.0691 41.4165 49.0104 41.4165 49.0104Z" fill="black"/>
<path d="M42.962 41.8809C43.3181 43.9256 43.6361 47.6653 42.1829 48.9945L46.4282 50.1775L48.5015 49.1313C46.2405 48.5398 46.3359 46.8544 46.7652 45.2803L42.962 41.8809Z" fill="#87878B"/>
<path opacity="0.2" d="M44.5202 43.2673L46.778 45.2803C46.6735 45.6466 46.6001 46.021 46.5586 46.3996C45.6936 46.2565 44.5234 45.2771 44.4502 44.3676C44.4051 43.9997 44.4288 43.6266 44.5202 43.2673V43.2673Z" fill="black"/>
<path d="M45.9735 36.1981C45.0482 37.203 45.8463 38.351 48.8006 39.747C49.5033 38.1983 49.074 35.613 48.12 35.1614C47.166 34.7099 46.7813 35.3268 45.9735 36.1981Z" fill="#2E353A"/>
<path d="M41.7218 39.3591C42.4723 42.0207 42.7776 43.6139 44.4375 44.7046C46.937 46.3423 49.9993 44.3866 50.0598 41.5533C50.1106 39.0093 48.8768 35.082 46.0053 34.5827C45.3733 34.4698 44.7229 34.5201 44.1158 34.7288C43.5087 34.9376 42.9649 35.2978 42.5359 35.7755C42.107 36.2532 41.8071 36.8324 41.6646 37.4584C41.5221 38.0844 41.5418 38.7364 41.7218 39.3527V39.3591Z" fill="#87878B"/>
<path d="M45.9099 39.2255C45.9576 39.4449 46.1134 39.5976 46.2565 39.5658C46.3996 39.534 46.4759 39.3336 46.4282 39.1142C46.3805 38.8948 46.2279 38.7422 46.0848 38.7708C45.9417 38.7994 45.8781 39.0061 45.9099 39.2255Z" fill="#2E353A"/>
<path d="M48.4062 38.688C48.4539 38.9074 48.6097 39.0601 48.7528 39.0283C48.8959 38.9965 48.9754 38.7961 48.9277 38.5735C48.88 38.3509 48.7242 38.2015 48.5811 38.2333C48.438 38.2651 48.3585 38.4686 48.4062 38.688Z" fill="#2E353A"/>
<path d="M47.6143 38.9678C48.0205 39.583 48.5107 40.1385 49.0707 40.6182C48.9436 40.7578 48.7875 40.868 48.6134 40.941C48.4393 41.0141 48.2513 41.0482 48.0626 41.0411L47.6143 38.9678Z" fill="#87878B"/>
<path d="M45.0576 38.5864C45.0339 38.5952 45.0082 38.5967 44.9837 38.5905C44.9593 38.5843 44.9373 38.5708 44.9207 38.5518C44.9041 38.5328 44.8937 38.5092 44.8909 38.4841C44.8881 38.4591 44.893 38.4337 44.9049 38.4115C44.9881 38.219 45.1166 38.0493 45.2793 37.917C45.4421 37.7847 45.6344 37.6936 45.8398 37.6515C45.8731 37.6459 45.9072 37.6533 45.9351 37.6723C45.9629 37.6912 45.9824 37.7203 45.9893 37.7533V37.7533C45.9931 37.7876 45.9837 37.8222 45.963 37.8499C45.9424 37.8776 45.912 37.8965 45.878 37.9027C45.7166 37.9385 45.566 38.0123 45.4388 38.1179C45.3116 38.2236 45.2114 38.358 45.1466 38.5101C45.139 38.529 45.1269 38.5458 45.1114 38.5591C45.0959 38.5724 45.0774 38.5818 45.0576 38.5864V38.5864Z" fill="#2E353A"/>
<path d="M49.3601 37.6007C49.3356 37.6069 49.3098 37.6056 49.286 37.5971C49.2622 37.5886 49.2415 37.5733 49.2265 37.553C49.1278 37.4201 48.9992 37.3123 48.8512 37.2383C48.7032 37.1643 48.5398 37.1261 48.3743 37.1268C48.3393 37.1295 48.3048 37.1183 48.278 37.0957C48.2512 37.0731 48.2344 37.0409 48.2312 37.006C48.2292 36.9717 48.2403 36.938 48.2621 36.9115C48.2839 36.885 48.3148 36.8676 48.3488 36.8629C48.5586 36.8581 48.7664 36.9035 48.955 36.9954C49.1436 37.0872 49.3076 37.2227 49.4332 37.3908C49.444 37.4043 49.452 37.4198 49.4567 37.4364C49.4614 37.4531 49.4628 37.4705 49.4607 37.4877C49.4586 37.5048 49.4532 37.5214 49.4446 37.5364C49.4361 37.5515 49.4246 37.5646 49.411 37.5752V37.5752C49.3965 37.588 49.379 37.5967 49.3601 37.6007Z" fill="#2E353A"/>
<path d="M42.2943 36.742C43.6489 36.901 43.7889 38.2939 42.4533 41.2735C40.911 40.5549 39.5531 38.3098 39.9888 37.3494C40.4244 36.3891 41.0954 36.5989 42.2943 36.742Z" fill="#2E353A"/>
<path d="M40.9044 41.7949C41.0673 42.0987 41.2885 42.3674 41.5553 42.5856C41.8222 42.8039 42.1294 42.9674 42.4594 43.0669C43.3435 43.3244 43.795 42.5358 43.5597 41.6963C43.3466 40.9395 42.628 39.8932 41.7376 40.0045C40.8472 40.1158 40.5037 41.0412 40.9044 41.7949Z" fill="#87878B"/>
<path d="M40.0936 37.1204C40.0936 37.1204 39.4226 36.2555 40.7296 34.5255C42.0366 32.7956 45.2293 32.2645 47.6779 32.7415C50.1265 33.2185 48.67 35.9216 47.7955 36.3699L47.9037 35.947C46.9677 36.4353 45.9371 36.7152 44.8827 36.7674L45.366 36.3191C45.366 36.3191 41.5246 37.3144 40.0936 37.1204Z" fill="#2E353A"/>
<path d="M47.9006 41.7726C47.8451 42.0995 47.8143 42.4301 47.8084 42.7616L47.6367 42.787C46.848 42.892 46.4505 42.6789 46.247 42.415C46.1503 42.2822 46.0861 42.1287 46.0594 41.9666C46.0463 41.8748 46.0463 41.7817 46.0594 41.6899C46.5749 41.8422 47.1173 41.8813 47.6494 41.8044C47.7957 41.7917 47.9006 41.7726 47.9006 41.7726Z" fill="#2E353A"/>
<path d="M47.6303 41.8044L47.5953 42.097C46.8576 42.1924 46.3233 42.1606 46.0594 41.9666C46.0463 41.8748 46.0463 41.7817 46.0594 41.6899C46.5689 41.8395 47.1045 41.8785 47.6303 41.8044Z" fill="white"/>
<path d="M47.6365 42.784C46.8478 42.889 46.4503 42.6759 46.2468 42.412C46.5457 42.3781 46.8483 42.3974 47.1404 42.4692C47.3348 42.5193 47.5084 42.6295 47.6365 42.784Z" fill="#87878B"/>
<path d="M42.9302 47.7383C42.9302 47.7383 45.2262 49.4618 46.4282 49.8593C46.4282 49.8593 46.9943 48.7972 46.7621 47.9195L48.5016 49.1311C48.6971 49.8602 48.6971 50.628 48.5016 51.3571L46.4282 50.1773L44.4693 51.6083C44.4693 51.6083 41.5723 50.7688 41.4038 49.0103L42.9302 47.7383Z" fill="#87878B"/>
<path opacity="0.8" d="M42.9302 47.7383C42.9302 47.7383 45.2262 49.4618 46.4282 49.8593C46.4282 49.8593 46.9943 48.7972 46.7621 47.9195L48.5016 49.1311C48.6971 49.8602 48.6971 50.628 48.5016 51.3571L46.4282 50.1773L44.4693 51.6083C44.4693 51.6083 41.5723 50.7688 41.4038 49.0103L42.9302 47.7383Z" fill="white"/>
<path d="M80.8262 64.0486H49.1311C48.9256 64.0486 48.759 64.2152 48.759 64.4207V65.3524C48.759 65.5579 48.9256 65.7245 49.1311 65.7245H80.8262C81.0316 65.7245 81.1982 65.5579 81.1982 65.3524V64.4207C81.1982 64.2152 81.0316 64.0486 80.8262 64.0486Z" fill="#87878B"/>
<path opacity="0.5" d="M81.09 64.376V65.3078C81.09 65.5145 81.0328 65.6798 80.8293 65.6798H49.1311C48.9244 65.6798 48.6541 65.5145 48.6541 65.3078V64.376C48.6541 64.1725 48.9244 64.0898 49.1311 64.0898H80.8293C81.0328 64.0898 81.09 64.1725 81.09 64.376Z" fill="white"/>
<path opacity="0.2" d="M62.01 64.376V65.3078C62.01 65.5145 61.9401 65.6798 61.7366 65.6798H49.1311C48.9244 65.6798 48.6541 65.5145 48.6541 65.3078V64.376C48.6541 64.1725 48.9244 64.0898 49.1311 64.0898H61.7366C61.9401 64.0898 62.01 64.1725 62.01 64.376Z" fill="black"/>
<path d="M54.8103 17.7033C54.5363 16.7103 54.0147 15.8032 53.2944 15.067C52.574 14.3308 51.6785 13.7895 50.6918 13.4939C49.7051 13.1983 48.6595 13.1581 47.653 13.3771C46.6465 13.596 45.7121 14.0669 44.9374 14.7457C44.1626 15.4245 43.5729 16.2889 43.2235 17.2578C42.8741 18.2268 42.7764 19.2686 42.9397 20.2856C43.103 21.3026 43.5218 22.2615 44.1569 23.0724C44.792 23.8833 45.6227 24.5197 46.5709 24.9219C46.9785 25.089 47.3071 25.4051 47.49 25.8059L47.6967 26.2734L53.551 24.6834L53.4906 24.1746C53.4485 23.7335 53.5721 23.2925 53.8372 22.9375C54.3829 22.1946 54.7538 21.338 54.9223 20.4317C55.0908 19.5254 55.0525 18.5927 54.8103 17.7033Z" fill="#87878B"/>
<path d="M49.608 26.2863C49.608 26.2863 48.7271 23.5229 47.1721 22.2986L48.0339 22.0632L48.1007 20.7372L49.5094 22.7756L49.3949 20.2952L50.7846 22.5561L50.9245 21.2841L52.1552 20.9661C51.4819 22.4784 51.3615 24.1791 51.8149 25.7711" stroke="white" stroke-linecap="round" stroke-linejoin="round"/>
<path d="M50.7147 25.8219C49.678 26.1049 49.0993 27.2974 49.4236 28.4835C49.748 29.6697 50.8483 30.3915 51.885 30.118C52.9216 29.8446 53.4972 28.6457 53.176 27.4596C52.8549 26.2734 51.7514 25.542 50.7147 25.8219Z" fill="#2E353A"/>
<path d="M52.7117 29.0273L50.6256 29.5965C50.1273 29.7321 49.5961 29.6745 49.1385 29.435C48.6809 29.1956 48.3307 28.7922 48.1579 28.3055L47.4742 26.3752C47.4605 26.3371 47.4549 26.2965 47.4577 26.2561C47.4605 26.2157 47.4717 26.1763 47.4906 26.1404C47.5094 26.1045 47.5355 26.0729 47.5672 26.0477C47.5988 26.0224 47.6354 26.004 47.6746 25.9936L53.424 24.4259C53.4631 24.4151 53.5041 24.4125 53.5442 24.4183C53.5844 24.4242 53.6229 24.4383 53.6572 24.4599C53.6916 24.4814 53.7212 24.5099 53.744 24.5434C53.7668 24.577 53.7824 24.6149 53.7897 24.6548L54.1809 26.6614C54.2794 27.1683 54.1828 27.6938 53.9103 28.1325C53.6379 28.5713 53.2098 28.8909 52.7117 29.0273Z" fill="#87878B"/>
<path opacity="0.4" d="M52.7117 29.0273L50.6256 29.5965C50.1273 29.7321 49.5961 29.6745 49.1385 29.435C48.6809 29.1956 48.3307 28.7922 48.1579 28.3055L47.4742 26.3752C47.4605 26.3371 47.4549 26.2965 47.4577 26.2561C47.4605 26.2157 47.4717 26.1763 47.4906 26.1404C47.5094 26.1045 47.5355 26.0729 47.5672 26.0477C47.5988 26.0224 47.6354 26.004 47.6746 25.9936L53.424 24.4259C53.4631 24.4151 53.5041 24.4125 53.5442 24.4183C53.5844 24.4242 53.6229 24.4383 53.6572 24.4599C53.6916 24.4814 53.7212 24.5099 53.744 24.5434C53.7668 24.577 53.7824 24.6149 53.7897 24.6548L54.1809 26.6614C54.2794 27.1683 54.1828 27.6938 53.9103 28.1325C53.6379 28.5713 53.2098 28.8909 52.7117 29.0273Z" fill="white"/>
<path d="M40.8248 23.7835C40.2551 23.6788 39.6773 23.6245 39.0981 23.6213C38.8101 23.6196 38.5223 23.6355 38.2363 23.669C38.0932 23.6913 37.9501 23.7072 37.8133 23.7421C37.7434 23.7612 37.6734 23.7708 37.6066 23.7962L37.4063 23.8598L37.1773 23.9329L37.3141 23.7326C37.6998 23.1616 38.0067 22.5412 38.2267 21.8882C38.3361 21.5643 38.4159 21.2312 38.4652 20.8929C38.4895 20.7253 38.5044 20.5565 38.5098 20.3872C38.5193 20.2188 38.5193 20.05 38.5098 19.8816C38.4976 19.7149 38.4742 19.5491 38.4398 19.3855L38.3794 19.1439L38.2999 18.9054C38.2434 18.7494 38.1743 18.5984 38.0932 18.4538C38.015 18.3079 37.9268 18.1677 37.8292 18.034C37.7309 17.9007 37.6247 17.7732 37.5112 17.6524L37.3363 17.4744L37.1455 17.309C37.0215 17.1945 36.8752 17.1055 36.7449 16.991C36.6145 16.8765 36.4587 16.8129 36.3156 16.7207L35.9976 16.5108L36.3505 16.3423C36.5191 16.2596 36.6972 16.161 36.8657 16.0593C37.0342 15.9575 37.2028 15.8526 37.3681 15.7413C37.6959 15.5178 38.0073 15.2713 38.2999 15.0035C38.443 14.8699 38.5829 14.7332 38.7196 14.5901C38.8564 14.447 38.9804 14.2944 39.0981 14.1417C39.2157 13.9891 39.3302 13.8237 39.4161 13.6615C39.5188 13.499 39.6112 13.3301 39.6927 13.1559C39.7768 12.9829 39.849 12.8044 39.909 12.6217L39.9916 12.3482L40.0521 12.0652C40.0875 11.8784 40.1088 11.6892 40.1157 11.4991C40.1325 11.1158 40.0983 10.7319 40.0139 10.3575L39.9503 10.0745L39.8613 9.79784C39.8072 9.61022 39.7213 9.43532 39.6514 9.25406C39.5814 9.0728 39.4797 8.90426 39.3938 8.72618L38.9391 7.77218L39.8104 8.33186C39.963 8.43362 40.1284 8.5322 40.3096 8.62442C40.4909 8.71664 40.6594 8.80568 40.8375 8.88518C41.1921 9.0508 41.5576 9.19211 41.9314 9.30812C42.1191 9.36218 42.3067 9.41306 42.4943 9.4544C42.682 9.49726 42.8721 9.52911 43.0635 9.5498C43.2523 9.57403 43.4424 9.58571 43.6327 9.58478C43.821 9.58336 44.0089 9.57062 44.1956 9.54662L44.4691 9.49892L44.7394 9.42578C44.9139 9.36847 45.084 9.29832 45.2482 9.2159C45.3301 9.17653 45.4087 9.13081 45.4835 9.07916C45.5632 9.03281 45.6388 8.97961 45.7093 8.92016C45.8552 8.80658 45.9933 8.68335 46.1227 8.55128C46.2499 8.41404 46.3678 8.2685 46.4757 8.11562C46.5878 7.96194 46.6888 7.80041 46.7778 7.63226C46.8763 7.47008 46.9431 7.28564 47.029 7.11392C47.1148 6.9422 47.1657 6.7514 47.2357 6.57014L47.6332 5.5271L47.8303 6.61466C47.8636 6.79254 47.9093 6.96786 47.9671 7.13936C48.1347 7.67118 48.3906 8.17104 48.7239 8.61806C48.9437 8.90994 49.2039 9.16906 49.4967 9.38762C49.641 9.49761 49.7941 9.59546 49.9546 9.68018C50.1149 9.76729 50.2819 9.84172 50.4538 9.90278C50.6264 9.96305 50.8027 10.0119 50.9817 10.0491C51.1634 10.0856 51.3471 10.1111 51.5319 10.1254C51.7172 10.1349 51.903 10.1349 52.0884 10.1254C52.276 10.1254 52.4636 10.0999 52.6512 10.084C52.8388 10.0681 53.0265 10.0236 53.2109 9.995L53.7674 9.86144L54.3175 9.69608L54.8613 9.5021L55.615 9.2318L55.1825 9.90278C55.103 10.0204 55.0235 10.1635 54.9504 10.3003C54.8772 10.437 54.8104 10.5769 54.7468 10.7232C54.6218 11.0084 54.5228 11.3043 54.4511 11.6073C54.38 11.9062 54.3447 12.2126 54.3462 12.5199C54.3496 12.8211 54.4022 13.1197 54.502 13.404L54.5878 13.6138L54.696 13.846C54.7737 13.9749 54.862 14.0972 54.9599 14.2117C55.058 14.3253 55.1643 14.4315 55.2779 14.5297C55.3956 14.632 55.5199 14.7266 55.65 14.8127C55.7789 14.9007 55.9127 14.9814 56.0506 15.0544C56.1874 15.1307 56.3337 15.1879 56.4768 15.2579L56.922 15.4264L57.3799 15.5695L57.6979 15.6713L57.4308 15.878C57.2509 16.0176 57.0819 16.1707 56.9251 16.3359C56.7668 16.5015 56.6202 16.6779 56.4863 16.8638C56.4132 16.956 56.3559 17.0546 56.2923 17.15C56.231 17.2461 56.1758 17.3459 56.127 17.4489C56.0711 17.5506 56.0243 17.657 55.987 17.7669C55.9429 17.8697 55.9078 17.9761 55.8821 18.0849C55.8598 18.1962 55.8217 18.3043 55.809 18.4029L55.7772 18.7432C55.7772 18.8577 55.7772 18.9721 55.7962 19.0866C55.8026 19.2008 55.8218 19.3138 55.8535 19.4237C55.8743 19.532 55.9041 19.6384 55.9425 19.7417L56.0729 20.0597C56.1167 20.1706 56.171 20.2771 56.2351 20.3777L56.4132 20.6957L56.4799 20.807H56.3559C55.8856 20.8082 55.4175 20.8702 54.9631 20.9914C54.7355 21.0517 54.5157 21.1382 54.308 21.249C54.2564 21.2767 54.2065 21.3075 54.1585 21.3412C54.1069 21.3704 54.0588 21.4057 54.0154 21.4462C53.9681 21.4809 53.9234 21.5191 53.8819 21.5607L53.7579 21.691L53.8755 21.5543C53.914 21.5091 53.9566 21.4676 54.0027 21.4303C54.0458 21.388 54.0926 21.3496 54.1426 21.3158C54.1903 21.284 54.238 21.2458 54.2889 21.2172C54.4946 21.0939 54.7132 20.9937 54.9408 20.9183C55.3986 20.7696 55.8749 20.685 56.3559 20.6671L56.3019 20.7784L56.1047 20.4604C56.0331 20.3606 55.9714 20.2541 55.9203 20.1424L55.7708 19.8244C55.7233 19.7116 55.6871 19.5944 55.6627 19.4746C55.623 19.3583 55.5974 19.2376 55.5864 19.1152C55.5864 18.9944 55.5577 18.8704 55.5546 18.7495V18.3775C55.5546 18.2566 55.5991 18.1358 55.6182 18.015C55.6424 17.8937 55.6764 17.7746 55.7199 17.6588C55.7547 17.5403 55.8005 17.4253 55.8567 17.3154C55.9045 17.2057 55.9597 17.0995 56.022 16.9974C56.0799 16.888 56.1436 16.7819 56.2128 16.6794C56.35 16.4765 56.502 16.2841 56.6676 16.1038C56.8333 15.9196 57.013 15.7485 57.205 15.5918L57.2654 15.9098L56.7852 15.7731L56.3114 15.6045C56.1556 15.5377 55.9934 15.4773 55.8471 15.3978C55.6947 15.3234 55.547 15.2395 55.4051 15.1466C55.2597 15.0553 55.1205 14.9544 54.9885 14.8445C54.8578 14.734 54.7365 14.6127 54.626 14.482C54.5074 14.3509 54.401 14.2094 54.308 14.059L54.1776 13.8301L54.0727 13.5852C53.9503 13.2615 53.8815 12.9199 53.8692 12.574C53.8566 12.227 53.8876 11.8798 53.9614 11.5405C54.032 11.2069 54.132 10.8802 54.2603 10.5642C54.3239 10.4052 54.3939 10.2462 54.4702 10.0999C54.5465 9.95366 54.626 9.80102 54.7246 9.6452L55.0426 10.0459L54.4765 10.2526L53.901 10.4307C53.7038 10.4847 53.5066 10.5292 53.3095 10.5769C53.1123 10.6246 52.912 10.6533 52.7085 10.6755C52.505 10.7037 52.3001 10.7206 52.0947 10.7264C51.8829 10.7381 51.6706 10.7381 51.4587 10.7264C51.2516 10.7114 51.0456 10.6838 50.8418 10.6437C50.6362 10.6024 50.4333 10.5482 50.2344 10.4815C50.0361 10.4109 49.8427 10.327 49.6557 10.2303C49.4677 10.1327 49.288 10.02 49.1182 9.89324C48.7792 9.64351 48.4772 9.34694 48.2215 9.01238C47.9676 8.68289 47.7541 8.32418 47.5855 7.9439C47.4995 7.75532 47.4242 7.5621 47.3597 7.36514C47.2911 7.16445 47.2358 6.95942 47.1943 6.7514L47.789 6.79592C47.7159 6.99308 47.6491 7.19342 47.5696 7.3874C47.4881 7.58371 47.3968 7.77581 47.2961 7.96298C47.2033 8.1537 47.0971 8.33755 46.9781 8.51312C46.8534 8.69124 46.7175 8.86119 46.5711 9.02192C46.4193 9.18048 46.2555 9.32719 46.0813 9.46076C45.9955 9.52981 45.904 9.59151 45.8079 9.6452C45.7161 9.70641 45.6205 9.76164 45.5217 9.81056C45.3238 9.90899 45.1186 9.99192 44.9079 10.0586L44.5899 10.1381L44.2719 10.1953C44.061 10.2222 43.8485 10.2339 43.6359 10.2303C43.4232 10.2307 43.2108 10.2169 42.9999 10.189C42.786 10.1636 42.5737 10.1264 42.3639 10.0777C42.1572 10.0332 41.9537 9.97592 41.7534 9.91232C41.355 9.78761 40.966 9.63458 40.5895 9.4544C40.3987 9.36854 40.2142 9.27314 40.033 9.17456C39.8517 9.07598 39.6736 8.97104 39.486 8.85656L39.9026 8.47814C39.9948 8.66894 40.0934 8.85338 40.1761 9.05054C40.2612 9.24487 40.3366 9.44334 40.4019 9.6452L40.4973 9.9632L40.5672 10.2812C40.61 10.4914 40.6419 10.7037 40.6626 10.9172C40.675 11.129 40.675 11.3414 40.6626 11.5532C40.6529 11.7668 40.6274 11.9794 40.5863 12.1892L40.5163 12.5072L40.4209 12.8252C40.3515 13.0297 40.2686 13.2294 40.1729 13.423C40.0801 13.6158 39.9738 13.8017 39.8549 13.9795C39.7385 14.1533 39.6133 14.321 39.4797 14.482C39.3429 14.6473 39.203 14.8 39.0567 14.9558C38.9104 15.1116 38.7546 15.2484 38.5988 15.3883C38.2817 15.6611 37.9471 15.9128 37.5971 16.1419C37.4211 16.2564 37.2431 16.3624 37.0629 16.4599C36.8784 16.5617 36.6972 16.6571 36.4968 16.7461L36.5191 16.3677C36.6685 16.4695 36.8371 16.5617 36.9706 16.6666C37.1042 16.7716 37.2632 16.8797 37.3936 17.0069L37.5971 17.1913L37.7847 17.3885C37.907 17.524 38.0217 17.6663 38.1282 17.8146C38.2334 17.9658 38.328 18.1241 38.4112 18.2884C38.4956 18.4503 38.5679 18.6183 38.6274 18.7909L38.7069 19.0548L38.7642 19.3219C38.7979 19.5015 38.8191 19.6832 38.8278 19.8657C38.8503 20.5863 38.7248 21.3039 38.4589 21.9741C38.2055 22.6378 37.8643 23.2645 37.4445 23.8375L37.3522 23.7103L37.5653 23.6499C37.6384 23.6277 37.7116 23.6181 37.7847 23.6022C37.9278 23.5704 38.0741 23.5609 38.2204 23.5418C38.5127 23.5243 38.8058 23.5243 39.0981 23.5418C39.6795 23.5726 40.2572 23.6535 40.8248 23.7835V23.7835Z" fill="#87878B"/>
<path opacity="0.7" d="M40.8248 23.7835C40.2551 23.6788 39.6773 23.6245 39.0981 23.6213C38.8101 23.6196 38.5223 23.6355 38.2363 23.669C38.0932 23.6913 37.9501 23.7072 37.8133 23.7421C37.7434 23.7612 37.6734 23.7708 37.6066 23.7962L37.4063 23.8598L37.1773 23.9329L37.3141 23.7326C37.6998 23.1616 38.0067 22.5412 38.2267 21.8882C38.3361 21.5643 38.4159 21.2312 38.4652 20.8929C38.4895 20.7253 38.5044 20.5565 38.5098 20.3872C38.5193 20.2188 38.5193 20.05 38.5098 19.8816C38.4976 19.7149 38.4742 19.5491 38.4398 19.3855L38.3794 19.1439L38.2999 18.9054C38.2434 18.7494 38.1743 18.5984 38.0932 18.4538C38.015 18.3079 37.9268 18.1677 37.8292 18.034C37.7309 17.9007 37.6247 17.7732 37.5112 17.6524L37.3363 17.4744L37.1455 17.309C37.0215 17.1945 36.8752 17.1055 36.7449 16.991C36.6145 16.8765 36.4587 16.8129 36.3156 16.7207L35.9976 16.5108L36.3505 16.3423C36.5191 16.2596 36.6972 16.161 36.8657 16.0593C37.0342 15.9575 37.2028 15.8526 37.3681 15.7413C37.6959 15.5178 38.0073 15.2713 38.2999 15.0035C38.443 14.8699 38.5829 14.7332 38.7196 14.5901C38.8564 14.447 38.9804 14.2944 39.0981 14.1417C39.2157 13.9891 39.3302 13.8237 39.4161 13.6615C39.5188 13.499 39.6112 13.3301 39.6927 13.1559C39.7768 12.9829 39.849 12.8044 39.909 12.6217L39.9916 12.3482L40.0521 12.0652C40.0875 11.8784 40.1088 11.6892 40.1157 11.4991C40.1325 11.1158 40.0983 10.7319 40.0139 10.3575L39.9503 10.0745L39.8613 9.79784C39.8072 9.61022 39.7213 9.43532 39.6514 9.25406C39.5814 9.0728 39.4797 8.90426 39.3938 8.72618L38.9391 7.77218L39.8104 8.33186C39.963 8.43362 40.1284 8.5322 40.3096 8.62442C40.4909 8.71664 40.6594 8.80568 40.8375 8.88518C41.1921 9.0508 41.5576 9.19211 41.9314 9.30812C42.1191 9.36218 42.3067 9.41306 42.4943 9.4544C42.682 9.49726 42.8721 9.52911 43.0635 9.5498C43.2523 9.57403 43.4424 9.58571 43.6327 9.58478C43.821 9.58336 44.0089 9.57062 44.1956 9.54662L44.4691 9.49892L44.7394 9.42578C44.9139 9.36847 45.084 9.29832 45.2482 9.2159C45.3301 9.17653 45.4087 9.13081 45.4835 9.07916C45.5632 9.03281 45.6388 8.97961 45.7093 8.92016C45.8552 8.80658 45.9933 8.68335 46.1227 8.55128C46.2499 8.41404 46.3678 8.2685 46.4757 8.11562C46.5878 7.96194 46.6888 7.80041 46.7778 7.63226C46.8763 7.47008 46.9431 7.28564 47.029 7.11392C47.1148 6.9422 47.1657 6.7514 47.2357 6.57014L47.6332 5.5271L47.8303 6.61466C47.8636 6.79254 47.9093 6.96786 47.9671 7.13936C48.1347 7.67118 48.3906 8.17104 48.7239 8.61806C48.9437 8.90994 49.2039 9.16906 49.4967 9.38762C49.641 9.49761 49.7941 9.59546 49.9546 9.68018C50.1149 9.76729 50.2819 9.84172 50.4538 9.90278C50.6264 9.96305 50.8027 10.0119 50.9817 10.0491C51.1634 10.0856 51.3471 10.1111 51.5319 10.1254C51.7172 10.1349 51.903 10.1349 52.0884 10.1254C52.276 10.1254 52.4636 10.0999 52.6512 10.084C52.8388 10.0681 53.0265 10.0236 53.2109 9.995L53.7674 9.86144L54.3175 9.69608L54.8613 9.5021L55.615 9.2318L55.1825 9.90278C55.103 10.0204 55.0235 10.1635 54.9504 10.3003C54.8772 10.437 54.8104 10.5769 54.7468 10.7232C54.6218 11.0084 54.5228 11.3043 54.4511 11.6073C54.38 11.9062 54.3447 12.2126 54.3462 12.5199C54.3496 12.8211 54.4022 13.1197 54.502 13.404L54.5878 13.6138L54.696 13.846C54.7737 13.9749 54.862 14.0972 54.9599 14.2117C55.058 14.3253 55.1643 14.4315 55.2779 14.5297C55.3956 14.632 55.5199 14.7266 55.65 14.8127C55.7789 14.9007 55.9127 14.9814 56.0506 15.0544C56.1874 15.1307 56.3337 15.1879 56.4768 15.2579L56.922 15.4264L57.3799 15.5695L57.6979 15.6713L57.4308 15.878C57.2509 16.0176 57.0819 16.1707 56.9251 16.3359C56.7668 16.5015 56.6202 16.6779 56.4863 16.8638C56.4132 16.956 56.3559 17.0546 56.2923 17.15C56.231 17.2461 56.1758 17.3459 56.127 17.4489C56.0711 17.5506 56.0243 17.657 55.987 17.7669C55.9429 17.8697 55.9078 17.9761 55.8821 18.0849C55.8598 18.1962 55.8217 18.3043 55.809 18.4029L55.7772 18.7432C55.7772 18.8577 55.7772 18.9721 55.7962 19.0866C55.8026 19.2008 55.8218 19.3138 55.8535 19.4237C55.8743 19.532 55.9041 19.6384 55.9425 19.7417L56.0729 20.0597C56.1167 20.1706 56.171 20.2771 56.2351 20.3777L56.4132 20.6957L56.4799 20.807H56.3559C55.8856 20.8082 55.4175 20.8702 54.9631 20.9914C54.7355 21.0517 54.5157 21.1382 54.308 21.249C54.2564 21.2767 54.2065 21.3075 54.1585 21.3412C54.1069 21.3704 54.0588 21.4057 54.0154 21.4462C53.9681 21.4809 53.9234 21.5191 53.8819 21.5607L53.7579 21.691L53.8755 21.5543C53.914 21.5091 53.9566 21.4676 54.0027 21.4303C54.0458 21.388 54.0926 21.3496 54.1426 21.3158C54.1903 21.284 54.238 21.2458 54.2889 21.2172C54.4946 21.0939 54.7132 20.9937 54.9408 20.9183C55.3986 20.7696 55.8749 20.685 56.3559 20.6671L56.3019 20.7784L56.1047 20.4604C56.0331 20.3606 55.9714 20.2541 55.9203 20.1424L55.7708 19.8244C55.7233 19.7116 55.6871 19.5944 55.6627 19.4746C55.623 19.3583 55.5974 19.2376 55.5864 19.1152C55.5864 18.9944 55.5577 18.8704 55.5546 18.7495V18.3775C55.5546 18.2566 55.5991 18.1358 55.6182 18.015C55.6424 17.8937 55.6764 17.7746 55.7199 17.6588C55.7547 17.5403 55.8005 17.4253 55.8567 17.3154C55.9045 17.2057 55.9597 17.0995 56.022 16.9974C56.0799 16.888 56.1436 16.7819 56.2128 16.6794C56.35 16.4765 56.502 16.2841 56.6676 16.1038C56.8333 15.9196 57.013 15.7485 57.205 15.5918L57.2654 15.9098L56.7852 15.7731L56.3114 15.6045C56.1556 15.5377 55.9934 15.4773 55.8471 15.3978C55.6947 15.3234 55.547 15.2395 55.4051 15.1466C55.2597 15.0553 55.1205 14.9544 54.9885 14.8445C54.8578 14.734 54.7365 14.6127 54.626 14.482C54.5074 14.3509 54.401 14.2094 54.308 14.059L54.1776 13.8301L54.0727 13.5852C53.9503 13.2615 53.8815 12.9199 53.8692 12.574C53.8566 12.227 53.8876 11.8798 53.9614 11.5405C54.032 11.2069 54.132 10.8802 54.2603 10.5642C54.3239 10.4052 54.3939 10.2462 54.4702 10.0999C54.5465 9.95366 54.626 9.80102 54.7246 9.6452L55.0426 10.0459L54.4765 10.2526L53.901 10.4307C53.7038 10.4847 53.5066 10.5292 53.3095 10.5769C53.1123 10.6246 52.912 10.6533 52.7085 10.6755C52.505 10.7037 52.3001 10.7206 52.0947 10.7264C51.8829 10.7381 51.6706 10.7381 51.4587 10.7264C51.2516 10.7114 51.0456 10.6838 50.8418 10.6437C50.6362 10.6024 50.4333 10.5482 50.2344 10.4815C50.0361 10.4109 49.8427 10.327 49.6557 10.2303C49.4677 10.1327 49.288 10.02 49.1182 9.89324C48.7792 9.64351 48.4772 9.34694 48.2215 9.01238C47.9676 8.68289 47.7541 8.32418 47.5855 7.9439C47.4995 7.75532 47.4242 7.5621 47.3597 7.36514C47.2911 7.16445 47.2358 6.95942 47.1943 6.7514L47.789 6.79592C47.7159 6.99308 47.6491 7.19342 47.5696 7.3874C47.4881 7.58371 47.3968 7.77581 47.2961 7.96298C47.2033 8.1537 47.0971 8.33755 46.9781 8.51312C46.8534 8.69124 46.7175 8.86119 46.5711 9.02192C46.4193 9.18048 46.2555 9.32719 46.0813 9.46076C45.9955 9.52981 45.904 9.59151 45.8079 9.6452C45.7161 9.70641 45.6205 9.76164 45.5217 9.81056C45.3238 9.90899 45.1186 9.99192 44.9079 10.0586L44.5899 10.1381L44.2719 10.1953C44.061 10.2222 43.8485 10.2339 43.6359 10.2303C43.4232 10.2307 43.2108 10.2169 42.9999 10.189C42.786 10.1636 42.5737 10.1264 42.3639 10.0777C42.1572 10.0332 41.9537 9.97592 41.7534 9.91232C41.355 9.78761 40.966 9.63458 40.5895 9.4544C40.3987 9.36854 40.2142 9.27314 40.033 9.17456C39.8517 9.07598 39.6736 8.97104 39.486 8.85656L39.9026 8.47814C39.9948 8.66894 40.0934 8.85338 40.1761 9.05054C40.2612 9.24487 40.3366 9.44334 40.4019 9.6452L40.4973 9.9632L40.5672 10.2812C40.61 10.4914 40.6419 10.7037 40.6626 10.9172C40.675 11.129 40.675 11.3414 40.6626 11.5532C40.6529 11.7668 40.6274 11.9794 40.5863 12.1892L40.5163 12.5072L40.4209 12.8252C40.3515 13.0297 40.2686 13.2294 40.1729 13.423C40.0801 13.6158 39.9738 13.8017 39.8549 13.9795C39.7385 14.1533 39.6133 14.321 39.4797 14.482C39.3429 14.6473 39.203 14.8 39.0567 14.9558C38.9104 15.1116 38.7546 15.2484 38.5988 15.3883C38.2817 15.6611 37.9471 15.9128 37.5971 16.1419C37.4211 16.2564 37.2431 16.3624 37.0629 16.4599C36.8784 16.5617 36.6972 16.6571 36.4968 16.7461L36.5191 16.3677C36.6685 16.4695 36.8371 16.5617 36.9706 16.6666C37.1042 16.7716 37.2632 16.8797 37.3936 17.0069L37.5971 17.1913L37.7847 17.3885C37.907 17.524 38.0217 17.6663 38.1282 17.8146C38.2334 17.9658 38.328 18.1241 38.4112 18.2884C38.4956 18.4503 38.5679 18.6183 38.6274 18.7909L38.7069 19.0548L38.7642 19.3219C38.7979 19.5015 38.8191 19.6832 38.8278 19.8657C38.8503 20.5863 38.7248 21.3039 38.4589 21.9741C38.2055 22.6378 37.8643 23.2645 37.4445 23.8375L37.3522 23.7103L37.5653 23.6499C37.6384 23.6277 37.7116 23.6181 37.7847 23.6022C37.9278 23.5704 38.0741 23.5609 38.2204 23.5418C38.5127 23.5243 38.8058 23.5243 39.0981 23.5418C39.6795 23.5726 40.2572 23.6535 40.8248 23.7835V23.7835Z" fill="white"/>
</svg>
